<svg width="110" height="17" viewBox="0 0 110 17" fill="none" xmlns="http://www.w3.org/2000/svg">
<path d="M4.832 12.176V16.976H0.512V0.223999H13.424C15.32 0.223999 16.904 0.655999 18.128 1.496C19.664 2.552 20.504 4.232 20.504 6.2C20.504 9.896 17.792 12.176 13.424 12.176H4.832ZM4.832 4.544V7.88H13.424C16.184 7.88 16.184 6.752 16.184 6.2C16.184 5.72 16.184 4.544 13.424 4.544H4.832ZM43.2296 16.976H38.1416L35.2616 12.152H26.9576V16.952H22.6376V0.199999H35.5496C37.4456 0.199999 39.0296 0.631999 40.2536 1.472C41.7896 2.528 42.6296 4.184 42.6296 6.176C42.6296 8.456 41.5736 10.208 39.7496 11.216L43.2296 16.976ZM26.9576 4.52V7.832H35.5496C38.3096 7.832 38.3096 6.728 38.3096 6.176C38.3096 5.696 38.3096 4.52 35.5496 4.52H26.9576ZM57.2274 0.223999L64.8114 17H60.0354L58.5714 13.832L50.2674 13.808L48.7554 17H43.9074L51.8994 0.223999H57.2274ZM52.2594 9.512H56.6994L54.5394 4.712L52.2594 9.512ZM82.4028 0.223999H86.7228V16.976H81.9468L70.7388 5.384V17H66.4188V0.223999H71.7468L82.4028 11.24V0.223999ZM101.618 0.223999L109.202 17H104.426L102.962 13.832L94.658 13.808L93.146 17H88.298L96.29 0.223999H101.618ZM96.65 9.512H101.09L98.93 4.712L96.65 9.512Z" fill="black"/>
</svg>
