<svg width="435" height="68" viewBox="0 0 435 68" fill="none" xmlns="http://www.w3.org/2000/svg">
<path d="M17.328 48.704V67.904H0.0480001V0.895994H51.696C59.28 0.895994 65.616 2.62399 70.512 5.984C76.656 10.208 80.016 16.928 80.016 24.8C80.016 39.584 69.168 48.704 51.696 48.704H17.328ZM17.328 18.176V31.52H51.696C62.736 31.52 62.736 27.008 62.736 24.8C62.736 22.88 62.736 18.176 51.696 18.176H17.328ZM170.918 67.904H150.566L139.046 48.608H105.83V67.808H88.5503V0.799995H140.198C147.782 0.799995 154.118 2.528 159.014 5.888C165.158 10.112 168.518 16.736 168.518 24.704C168.518 33.824 164.294 40.832 156.998 44.864L170.918 67.904ZM105.83 18.08V31.328H140.198C151.238 31.328 151.238 26.912 151.238 24.704C151.238 22.784 151.238 18.08 140.198 18.08H105.83ZM226.91 0.895994L257.246 68H238.142L232.286 55.328L199.07 55.232L193.022 68H173.63L205.598 0.895994H226.91ZM207.038 38.048H224.798L216.158 18.848L207.038 38.048ZM327.611 0.895994H344.891V67.904H325.787L280.955 21.536V68H263.675V0.895994H284.987L327.611 44.96V0.895994ZM404.472 0.895994L434.808 68H415.704L409.848 55.328L376.632 55.232L370.584 68H351.192L383.16 0.895994H404.472ZM384.6 38.048H402.36L393.72 18.848L384.6 38.048Z" fill="white"/>
</svg>
